<svg width="792" height="731" viewBox="0 0 792 731" fill="none" xmlns="http://www.w3.org/2000/svg">
<g opacity="0.19" filter="url(#filter0_f_22_54)">
<ellipse cx="396" cy="399.961" rx="308" ry="242.5" fill="#D9D9D9" fill-opacity="0.7"/>
<path d="M396 157.961C565.946 157.961 703.5 266.413 703.5 399.961C703.5 533.509 565.946 641.961 396 641.961C226.054 641.961 88.5 533.509 88.5 399.961C88.5 266.413 226.054 157.961 396 157.961Z" stroke="black"/>
</g>
<mask id="path-3-outside-1_22_54" maskUnits="userSpaceOnUse" x="200.224" y="263" width="236" height="138" fill="black">
<rect fill="white" x="200.224" y="263" width="236" height="138"/>
<path d="M244.765 399.222C216.441 399.222 202.001 383.115 202.001 351.829V349.422H237.915V352.014C237.915 358.308 241.988 361.27 244.395 361.27H267.906C271.424 361.27 273.645 359.604 273.645 356.827V355.901C273.645 352.199 268.091 349.792 236.62 344.053C219.403 338.87 202.741 328.688 202.556 303.695V303.14C202.556 276.296 218.292 264.818 244.395 264.818H268.091C287.9 264.818 311.226 272.409 311.226 308.138V313.692H275.497V311.471C275.497 307.028 274.016 302.77 269.202 302.77H245.691C242.729 302.77 240.507 304.621 240.507 307.398V307.953C240.507 311.471 251.06 313.507 274.941 318.691C293.084 324.43 311.411 332.76 311.597 359.049V359.604C311.411 385.522 295.676 399.222 268.462 399.222H244.765ZM309.592 397L347.914 267.41H396.417L434.739 397H396.417L390.493 377.562H353.653L347.728 397H309.592ZM361.428 345.719L362.354 346.645L362.909 346.46C363.65 346.09 364.39 345.905 365.316 345.905H378.83C379.756 345.905 380.496 346.09 381.422 346.46L381.792 346.645L382.718 345.719L382.162 344.794C381.792 344.238 381.607 342.942 381.422 342.387L374.017 314.248C373.276 311.1 372.721 306.842 372.721 304.436H371.425C371.425 307.028 370.87 310.915 370.129 314.248L362.724 342.387C362.539 342.942 362.354 344.238 361.983 344.794L361.428 345.719Z"/>
</mask>
<path d="M244.765 399.222C216.441 399.222 202.001 383.115 202.001 351.829V349.422H237.915V352.014C237.915 358.308 241.988 361.27 244.395 361.27H267.906C271.424 361.27 273.645 359.604 273.645 356.827V355.901C273.645 352.199 268.091 349.792 236.62 344.053C219.403 338.87 202.741 328.688 202.556 303.695V303.14C202.556 276.296 218.292 264.818 244.395 264.818H268.091C287.9 264.818 311.226 272.409 311.226 308.138V313.692H275.497V311.471C275.497 307.028 274.016 302.77 269.202 302.77H245.691C242.729 302.77 240.507 304.621 240.507 307.398V307.953C240.507 311.471 251.06 313.507 274.941 318.691C293.084 324.43 311.411 332.76 311.597 359.049V359.604C311.411 385.522 295.676 399.222 268.462 399.222H244.765ZM309.592 397L347.914 267.41H396.417L434.739 397H396.417L390.493 377.562H353.653L347.728 397H309.592ZM361.428 345.719L362.354 346.645L362.909 346.46C363.65 346.09 364.39 345.905 365.316 345.905H378.83C379.756 345.905 380.496 346.09 381.422 346.46L381.792 346.645L382.718 345.719L382.162 344.794C381.792 344.238 381.607 342.942 381.422 342.387L374.017 314.248C373.276 311.1 372.721 306.842 372.721 304.436H371.425C371.425 307.028 370.87 310.915 370.129 314.248L362.724 342.387C362.539 342.942 362.354 344.238 361.983 344.794L361.428 345.719Z" fill="white"/>
<path d="M202.001 349.422V348.422H201.001V349.422H202.001ZM237.915 349.422H238.915V348.422H237.915V349.422ZM236.62 344.053L236.331 345.011L236.385 345.027L236.44 345.037L236.62 344.053ZM202.556 303.695H201.556L201.556 303.703L202.556 303.695ZM311.226 313.692V314.692H312.226V313.692H311.226ZM275.497 313.692H274.497V314.692H275.497V313.692ZM274.941 318.691L275.243 317.737L275.199 317.723L275.153 317.713L274.941 318.691ZM311.597 359.049H312.597L312.597 359.042L311.597 359.049ZM311.597 359.604L312.597 359.611V359.604H311.597ZM244.765 399.222V398.222C230.792 398.222 220.41 394.254 213.504 386.588C206.581 378.903 203.001 367.336 203.001 351.829H202.001H201.001C201.001 367.608 204.64 379.737 212.018 387.927C219.413 396.136 230.414 400.222 244.765 400.222V399.222ZM202.001 351.829H203.001V349.422H202.001H201.001V351.829H202.001ZM202.001 349.422V350.422H237.915V349.422V348.422H202.001V349.422ZM237.915 349.422H236.915V352.014H237.915H238.915V349.422H237.915ZM237.915 352.014H236.915C236.915 358.718 241.303 362.27 244.395 362.27V361.27V360.27C242.673 360.27 238.915 357.899 238.915 352.014H237.915ZM244.395 361.27V362.27H267.906V361.27V360.27H244.395V361.27ZM267.906 361.27V362.27C269.809 362.27 271.482 361.821 272.704 360.883C273.956 359.922 274.645 358.512 274.645 356.827H273.645H272.645C272.645 357.919 272.223 358.731 271.486 359.297C270.718 359.886 269.521 360.27 267.906 360.27V361.27ZM273.645 356.827H274.645V355.901H273.645H272.645V356.827H273.645ZM273.645 355.901H274.645C274.645 354.65 274.143 353.532 272.922 352.524C271.764 351.568 269.943 350.694 267.252 349.793C261.851 347.985 252.525 345.937 236.799 343.069L236.62 344.053L236.44 345.037C252.186 347.908 261.373 349.934 266.617 351.689C269.248 352.57 270.783 353.351 271.649 354.066C272.453 354.731 272.645 355.302 272.645 355.901H273.645ZM236.62 344.053L236.908 343.096C228.371 340.526 220.081 336.746 213.907 330.594C207.762 324.472 203.647 315.935 203.556 303.688L202.556 303.695L201.556 303.703C201.65 316.448 205.958 325.498 212.495 332.011C219.002 338.494 227.651 342.397 236.331 345.011L236.62 344.053ZM202.556 303.695H203.556V303.14H202.556H201.556V303.695H202.556ZM202.556 303.14H203.556C203.556 289.917 207.424 280.652 214.341 274.669C221.285 268.663 231.468 265.818 244.395 265.818V264.818V263.818C231.218 263.818 220.483 266.713 213.033 273.156C205.555 279.624 201.556 289.519 201.556 303.14H202.556ZM244.395 264.818V265.818H268.091V264.818V263.818H244.395V264.818ZM268.091 264.818V265.818C277.896 265.818 288.422 267.702 296.479 273.874C304.486 280.007 310.226 290.51 310.226 308.138H311.226H312.226C312.226 290.037 306.304 278.88 297.695 272.286C289.137 265.73 278.095 263.818 268.091 263.818V264.818ZM311.226 308.138H310.226V313.692H311.226H312.226V308.138H311.226ZM311.226 313.692V312.692H275.497V313.692V314.692H311.226V313.692ZM275.497 313.692H276.497V311.471H275.497H274.497V313.692H275.497ZM275.497 311.471H276.497C276.497 309.167 276.117 306.782 275.012 304.939C273.864 303.027 271.97 301.77 269.202 301.77V302.77V303.77C271.248 303.77 272.501 304.642 273.297 305.968C274.135 307.366 274.497 309.331 274.497 311.471H275.497ZM269.202 302.77V301.77H245.691V302.77V303.77H269.202V302.77ZM245.691 302.77V301.77C244.005 301.77 242.464 302.298 241.33 303.29C240.185 304.292 239.507 305.724 239.507 307.398H240.507H241.507C241.507 306.295 241.94 305.413 242.647 304.795C243.364 304.167 244.415 303.77 245.691 303.77V302.77ZM240.507 307.398H239.507V307.953H240.507H241.507V307.398H240.507ZM240.507 307.953H239.507C239.507 309.412 240.615 310.456 242.039 311.257C243.51 312.085 245.672 312.857 248.495 313.659C254.158 315.267 262.812 317.081 274.729 319.668L274.941 318.691L275.153 317.713C263.188 315.116 254.626 313.321 249.042 311.735C246.242 310.94 244.273 310.22 243.02 309.514C241.719 308.783 241.507 308.253 241.507 307.953H240.507ZM274.941 318.691L274.64 319.644C283.697 322.509 292.637 325.977 299.34 331.912C305.991 337.802 310.506 346.183 310.597 359.056L311.597 359.049L312.597 359.042C312.502 345.627 307.761 336.698 300.666 330.415C293.623 324.179 284.328 320.611 275.243 317.737L274.941 318.691ZM311.597 359.049H310.597V359.604H311.597H312.597V359.049H311.597ZM311.597 359.604L310.597 359.597C310.506 372.35 306.596 381.959 299.494 388.391C292.377 394.836 281.912 398.222 268.462 398.222V399.222V400.222C282.225 400.222 293.235 396.757 300.836 389.873C308.452 382.976 312.503 372.776 312.597 359.611L311.597 359.604ZM268.462 399.222V398.222H244.765V399.222V400.222H268.462V399.222ZM309.592 397L308.633 396.716L308.253 398H309.592V397ZM347.914 267.41V266.41H347.166L346.955 267.127L347.914 267.41ZM396.417 267.41L397.376 267.127L397.164 266.41H396.417V267.41ZM434.739 397V398H436.077L435.698 396.716L434.739 397ZM396.417 397L395.461 397.292L395.677 398H396.417V397ZM390.493 377.562L391.45 377.27L391.234 376.562H390.493V377.562ZM353.653 377.562V376.562H352.912L352.696 377.27L353.653 377.562ZM347.728 397V398H348.469L348.685 397.292L347.728 397ZM361.428 345.719L360.57 345.205L360.169 345.874L360.721 346.427L361.428 345.719ZM362.354 346.645L361.647 347.352L362.084 347.789L362.67 347.594L362.354 346.645ZM362.909 346.46L363.225 347.409L363.293 347.386L363.356 347.354L362.909 346.46ZM381.422 346.46L381.869 345.566L381.832 345.547L381.793 345.531L381.422 346.46ZM381.792 346.645L381.345 347.539L381.99 347.862L382.499 347.352L381.792 346.645ZM382.718 345.719L383.425 346.427L383.977 345.874L383.575 345.205L382.718 345.719ZM382.162 344.794L383.02 344.279L383.008 344.259L382.994 344.239L382.162 344.794ZM381.422 342.387L380.455 342.642L380.463 342.673L380.473 342.703L381.422 342.387ZM374.017 314.248L373.043 314.477L373.046 314.489L373.05 314.502L374.017 314.248ZM372.721 304.436H373.721V303.436H372.721V304.436ZM371.425 304.436V303.436H370.425V304.436H371.425ZM370.129 314.248L371.096 314.502L371.101 314.483L371.105 314.465L370.129 314.248ZM362.724 342.387L363.673 342.703L363.683 342.673L363.691 342.642L362.724 342.387ZM361.983 344.794L361.151 344.239L361.138 344.259L361.126 344.279L361.983 344.794ZM309.592 397L310.551 397.284L348.873 267.694L347.914 267.41L346.955 267.127L308.633 396.716L309.592 397ZM347.914 267.41V268.41H396.417V267.41V266.41H347.914V267.41ZM396.417 267.41L395.458 267.694L433.78 397.284L434.739 397L435.698 396.716L397.376 267.127L396.417 267.41ZM434.739 397V396H396.417V397V398H434.739V397ZM396.417 397L397.374 396.708L391.45 377.27L390.493 377.562L389.537 377.853L395.461 397.292L396.417 397ZM390.493 377.562V376.562H353.653V377.562V378.562H390.493V377.562ZM353.653 377.562L352.696 377.27L346.772 396.708L347.728 397L348.685 397.292L354.609 377.853L353.653 377.562ZM347.728 397V396H309.592V397V398H347.728V397ZM361.428 345.719L360.721 346.427L361.647 347.352L362.354 346.645L363.061 345.938L362.135 345.012L361.428 345.719ZM362.354 346.645L362.67 347.594L363.225 347.409L362.909 346.46L362.593 345.511L362.037 345.696L362.354 346.645ZM362.909 346.46L363.356 347.354C363.957 347.054 364.544 346.905 365.316 346.905V345.905V344.905C364.236 344.905 363.342 345.125 362.462 345.566L362.909 346.46ZM365.316 345.905V346.905H378.83V345.905V344.905H365.316V345.905ZM378.83 345.905V346.905C379.593 346.905 380.204 347.05 381.05 347.388L381.422 346.46L381.793 345.531C380.788 345.129 379.919 344.905 378.83 344.905V345.905ZM381.422 346.46L380.975 347.354L381.345 347.539L381.792 346.645L382.239 345.751L381.869 345.566L381.422 346.46ZM381.792 346.645L382.499 347.352L383.425 346.427L382.718 345.719L382.011 345.012L381.085 345.938L381.792 346.645ZM382.718 345.719L383.575 345.205L383.02 344.279L382.162 344.794L381.305 345.308L381.86 346.234L382.718 345.719ZM382.162 344.794L382.994 344.239C382.92 344.127 382.814 343.833 382.693 343.348C382.599 342.972 382.478 342.394 382.371 342.071L381.422 342.387L380.473 342.703C380.55 342.935 380.615 343.284 380.753 343.833C380.863 344.273 381.035 344.905 381.33 345.348L382.162 344.794ZM381.422 342.387L382.389 342.133L374.984 313.993L374.017 314.248L373.05 314.502L380.455 342.642L381.422 342.387ZM374.017 314.248L374.99 314.019C374.262 310.925 373.721 306.746 373.721 304.436H372.721H371.721C371.721 306.939 372.29 311.276 373.043 314.477L374.017 314.248ZM372.721 304.436V303.436H371.425V304.436V305.436H372.721V304.436ZM371.425 304.436H370.425C370.425 306.925 369.886 310.733 369.153 314.031L370.129 314.248L371.105 314.465C371.853 311.097 372.425 307.13 372.425 304.436H371.425ZM370.129 314.248L369.162 313.993L361.757 342.133L362.724 342.387L363.691 342.642L371.096 314.502L370.129 314.248ZM362.724 342.387L361.775 342.071C361.667 342.394 361.547 342.972 361.453 343.348C361.332 343.833 361.226 344.127 361.151 344.239L361.983 344.794L362.815 345.348C363.111 344.905 363.283 344.273 363.393 343.833C363.531 343.284 363.595 342.935 363.673 342.703L362.724 342.387ZM361.983 344.794L361.126 344.279L360.57 345.205L361.428 345.719L362.285 346.234L362.841 345.308L361.983 344.794Z" fill="black" mask="url(#path-3-outside-1_22_54)"/>
<mask id="path-5-outside-2_22_54" maskUnits="userSpaceOnUse" x="384.186" y="429.947" width="214" height="132" fill="black">
<rect fill="white" x="384.186" y="429.947" width="214" height="132"/>
<path d="M385.814 560.947V431.357H425.062L457.459 489.117C458.755 492.079 460.236 497.078 462.087 503.928L463.568 503.742L463.013 500.04C462.458 494.856 462.087 490.969 462.087 488.192V431.357H496.336V560.947H456.533L423.766 498.929C423.025 497.078 422.285 494.671 421.359 491.709L420.248 487.266L418.952 487.451L420.063 497.633C420.248 500.41 420.433 503.187 420.433 505.964L420.248 560.947H385.814ZM505.696 560.947V431.357H596.594V469.309H541.241V478.935H596.594V513.184H541.241V522.996H596.594V560.947H505.696Z"/>
</mask>
<path d="M385.814 560.947V431.357H425.062L457.459 489.117C458.755 492.079 460.236 497.078 462.087 503.928L463.568 503.742L463.013 500.04C462.458 494.856 462.087 490.969 462.087 488.192V431.357H496.336V560.947H456.533L423.766 498.929C423.025 497.078 422.285 494.671 421.359 491.709L420.248 487.266L418.952 487.451L420.063 497.633C420.248 500.41 420.433 503.187 420.433 505.964L420.248 560.947H385.814ZM505.696 560.947V431.357H596.594V469.309H541.241V478.935H596.594V513.184H541.241V522.996H596.594V560.947H505.696Z" fill="#24BBE0"/>
<path d="M385.814 560.947H384.814V561.947H385.814V560.947ZM385.814 431.357V430.357H384.814V431.357H385.814ZM425.062 431.357L425.934 430.868L425.647 430.357H425.062V431.357ZM457.459 489.117L458.375 488.716L458.355 488.671L458.331 488.628L457.459 489.117ZM462.087 503.928L461.122 504.188L461.349 505.028L462.211 504.92L462.087 503.928ZM463.568 503.742L463.692 504.735L464.709 504.608L464.557 503.594L463.568 503.742ZM463.013 500.04L462.019 500.146L462.021 500.167L462.024 500.188L463.013 500.04ZM462.087 431.357V430.357H461.087V431.357H462.087ZM496.336 431.357H497.336V430.357H496.336V431.357ZM496.336 560.947V561.947H497.336V560.947H496.336ZM456.533 560.947L455.649 561.414L455.931 561.947H456.533V560.947ZM423.766 498.929L422.837 499.301L422.857 499.35L422.882 499.396L423.766 498.929ZM421.359 491.709L420.389 491.952L420.396 491.98L420.405 492.007L421.359 491.709ZM420.248 487.266L421.218 487.023L421 486.149L420.107 486.276L420.248 487.266ZM418.952 487.451L418.811 486.461L417.853 486.598L417.958 487.56L418.952 487.451ZM420.063 497.633L421.061 497.567L421.06 497.546L421.057 497.525L420.063 497.633ZM420.433 505.964L421.433 505.967V505.964H420.433ZM420.248 560.947V561.947H421.245L421.248 560.951L420.248 560.947ZM385.814 560.947H386.814V431.357H385.814H384.814V560.947H385.814ZM385.814 431.357V432.357H425.062V431.357V430.357H385.814V431.357ZM425.062 431.357L424.189 431.846L456.587 489.607L457.459 489.117L458.331 488.628L425.934 430.868L425.062 431.357ZM457.459 489.117L456.543 489.518C457.804 492.4 459.266 497.323 461.122 504.188L462.087 503.928L463.053 503.667C461.206 496.833 459.706 491.759 458.375 488.716L457.459 489.117ZM462.087 503.928L462.211 504.92L463.692 504.735L463.568 503.742L463.444 502.75L461.963 502.935L462.087 503.928ZM463.568 503.742L464.557 503.594L464.002 499.892L463.013 500.04L462.024 500.188L462.579 503.891L463.568 503.742ZM463.013 500.04L464.007 499.933C463.45 494.737 463.087 490.905 463.087 488.192H462.087H461.087C461.087 491.032 461.465 494.976 462.019 500.146L463.013 500.04ZM462.087 488.192H463.087V431.357H462.087H461.087V488.192H462.087ZM462.087 431.357V432.357H496.336V431.357V430.357H462.087V431.357ZM496.336 431.357H495.336V560.947H496.336H497.336V431.357H496.336ZM496.336 560.947V559.947H456.533V560.947V561.947H496.336V560.947ZM456.533 560.947L457.418 560.48L424.65 498.462L423.766 498.929L422.882 499.396L455.649 561.414L456.533 560.947ZM423.766 498.929L424.694 498.558C423.972 496.752 423.245 494.392 422.314 491.411L421.359 491.709L420.405 492.007C421.324 494.951 422.079 497.404 422.837 499.301L423.766 498.929ZM421.359 491.709L422.329 491.467L421.218 487.023L420.248 487.266L419.278 487.509L420.389 491.952L421.359 491.709ZM420.248 487.266L420.107 486.276L418.811 486.461L418.952 487.451L419.094 488.441L420.39 488.256L420.248 487.266ZM418.952 487.451L417.958 487.56L419.069 497.742L420.063 497.633L421.057 497.525L419.946 487.343L418.952 487.451ZM420.063 497.633L419.065 497.7C419.251 500.482 419.433 503.226 419.433 505.964H420.433H421.433C421.433 503.148 421.246 500.338 421.061 497.567L420.063 497.633ZM420.433 505.964L419.433 505.961L419.248 560.944L420.248 560.947L421.248 560.951L421.433 505.967L420.433 505.964ZM420.248 560.947V559.947H385.814V560.947V561.947H420.248V560.947ZM505.696 560.947H504.696V561.947H505.696V560.947ZM505.696 431.357V430.357H504.696V431.357H505.696ZM596.594 431.357H597.594V430.357H596.594V431.357ZM596.594 469.309V470.309H597.594V469.309H596.594ZM541.241 469.309V468.309H540.241V469.309H541.241ZM541.241 478.935H540.241V479.935H541.241V478.935ZM596.594 478.935H597.594V477.935H596.594V478.935ZM596.594 513.184V514.184H597.594V513.184H596.594ZM541.241 513.184V512.184H540.241V513.184H541.241ZM541.241 522.996H540.241V523.996H541.241V522.996ZM596.594 522.996H597.594V521.996H596.594V522.996ZM596.594 560.947V561.947H597.594V560.947H596.594ZM505.696 560.947H506.696V431.357H505.696H504.696V560.947H505.696ZM505.696 431.357V432.357H596.594V431.357V430.357H505.696V431.357ZM596.594 431.357H595.594V469.309H596.594H597.594V431.357H596.594ZM596.594 469.309V468.309H541.241V469.309V470.309H596.594V469.309ZM541.241 469.309H540.241V478.935H541.241H542.241V469.309H541.241ZM541.241 478.935V479.935H596.594V478.935V477.935H541.241V478.935ZM596.594 478.935H595.594V513.184H596.594H597.594V478.935H596.594ZM596.594 513.184V512.184H541.241V513.184V514.184H596.594V513.184ZM541.241 513.184H540.241V522.996H541.241H542.241V513.184H541.241ZM541.241 522.996V523.996H596.594V522.996V521.996H541.241V522.996ZM596.594 522.996H595.594V560.947H596.594H597.594V522.996H596.594ZM596.594 560.947V559.947H505.696V560.947V561.947H596.594V560.947Z" fill="black" mask="url(#path-5-outside-2_22_54)"/>
<mask id="path-7-outside-3_22_54" maskUnits="userSpaceOnUse" x="438.235" y="259.62" width="146" height="160" fill="black">
<rect fill="white" x="438.235" y="259.62" width="146" height="160"/>
<path d="M439.863 418.62V261.261H507.991V299.397H475.408V325.686H505.029V360.49H475.408V418.62H439.863ZM515.433 418.62V261.261H583.19V299.397H550.978V322.353H583.19V357.342H550.978V380.484H583.19V418.62H515.433Z"/>
</mask>
<path d="M439.863 418.62V261.261H507.991V299.397H475.408V325.686H505.029V360.49H475.408V418.62H439.863ZM515.433 418.62V261.261H583.19V299.397H550.978V322.353H583.19V357.342H550.978V380.484H583.19V418.62H515.433Z" fill="white"/>
<path d="M439.863 418.62H438.863V419.62H439.863V418.62ZM439.863 261.261V260.261H438.863V261.261H439.863ZM507.991 261.261H508.991V260.261H507.991V261.261ZM507.991 299.397V300.397H508.991V299.397H507.991ZM475.408 299.397V298.397H474.408V299.397H475.408ZM475.408 325.686H474.408V326.686H475.408V325.686ZM505.029 325.686H506.029V324.686H505.029V325.686ZM505.029 360.49V361.49H506.029V360.49H505.029ZM475.408 360.49V359.49H474.408V360.49H475.408ZM475.408 418.62V419.62H476.408V418.62H475.408ZM439.863 418.62H440.863V261.261H439.863H438.863V418.62H439.863ZM439.863 261.261V262.261H507.991V261.261V260.261H439.863V261.261ZM507.991 261.261H506.991V299.397H507.991H508.991V261.261H507.991ZM507.991 299.397V298.397H475.408V299.397V300.397H507.991V299.397ZM475.408 299.397H474.408V325.686H475.408H476.408V299.397H475.408ZM475.408 325.686V326.686H505.029V325.686V324.686H475.408V325.686ZM505.029 325.686H504.029V360.49H505.029H506.029V325.686H505.029ZM505.029 360.49V359.49H475.408V360.49V361.49H505.029V360.49ZM475.408 360.49H474.408V418.62H475.408H476.408V360.49H475.408ZM475.408 418.62V417.62H439.863V418.62V419.62H475.408V418.62ZM515.433 418.62H514.433V419.62H515.433V418.62ZM515.433 261.261V260.261H514.433V261.261H515.433ZM583.19 261.261H584.19V260.261H583.19V261.261ZM583.19 299.397V300.397H584.19V299.397H583.19ZM550.978 299.397V298.397H549.978V299.397H550.978ZM550.978 322.353H549.978V323.353H550.978V322.353ZM583.19 322.353H584.19V321.353H583.19V322.353ZM583.19 357.342V358.342H584.19V357.342H583.19ZM550.978 357.342V356.342H549.978V357.342H550.978ZM550.978 380.484H549.978V381.484H550.978V380.484ZM583.19 380.484H584.19V379.484H583.19V380.484ZM583.19 418.62V419.62H584.19V418.62H583.19ZM515.433 418.62H516.433V261.261H515.433H514.433V418.62H515.433ZM515.433 261.261V262.261H583.19V261.261V260.261H515.433V261.261ZM583.19 261.261H582.19V299.397H583.19H584.19V261.261H583.19ZM583.19 299.397V298.397H550.978V299.397V300.397H583.19V299.397ZM550.978 299.397H549.978V322.353H550.978H551.978V299.397H550.978ZM550.978 322.353V323.353H583.19V322.353V321.353H550.978V322.353ZM583.19 322.353H582.19V357.342H583.19H584.19V322.353H583.19ZM583.19 357.342V356.342H550.978V357.342V358.342H583.19V357.342ZM550.978 357.342H549.978V380.484H550.978H551.978V357.342H550.978ZM550.978 380.484V381.484H583.19V380.484V379.484H550.978V380.484ZM583.19 380.484H582.19V418.62H583.19H584.19V380.484H583.19ZM583.19 418.62V417.62H515.433V418.62V419.62H583.19V418.62Z" fill="black" mask="url(#path-7-outside-3_22_54)"/>
<mask id="path-9-outside-4_22_54" maskUnits="userSpaceOnUse" x="205.826" y="402.575" width="173" height="193" fill="black">
<rect fill="white" x="205.826" y="402.575" width="173" height="193"/>
<path d="M207.454 591.575V560.844L242.444 446.99C242.814 446.064 243.554 445.139 244.11 444.768L243.369 443.658C242.444 444.213 240.592 444.583 238.926 444.583H207.454V406.447H284.838V434.401L248.738 550.477C248.183 551.588 247.627 552.698 246.516 553.439L247.442 554.55C248.553 553.809 250.404 553.439 252.255 553.439H284.838V591.575H207.454ZM333.634 593.797C292.165 593.797 292.165 559.733 292.165 541.591V456.246C292.165 438.104 292.35 404.225 333.634 403.855H335.67C376.954 404.225 377.139 438.104 377.139 456.246V541.591C377.139 559.733 377.139 593.797 335.67 593.797H333.634ZM327.525 538.814C327.525 551.773 328.45 555.66 334.374 555.66H334.93C340.669 555.475 341.78 551.588 341.78 538.814V459.208C341.78 446.249 340.854 442.362 334.93 442.177H334.374C328.45 442.362 327.525 446.435 327.525 459.208V538.814Z"/>
</mask>
<path d="M207.454 591.575V560.844L242.444 446.99C242.814 446.064 243.554 445.139 244.11 444.768L243.369 443.658C242.444 444.213 240.592 444.583 238.926 444.583H207.454V406.447H284.838V434.401L248.738 550.477C248.183 551.588 247.627 552.698 246.516 553.439L247.442 554.55C248.553 553.809 250.404 553.439 252.255 553.439H284.838V591.575H207.454ZM333.634 593.797C292.165 593.797 292.165 559.733 292.165 541.591V456.246C292.165 438.104 292.35 404.225 333.634 403.855H335.67C376.954 404.225 377.139 438.104 377.139 456.246V541.591C377.139 559.733 377.139 593.797 335.67 593.797H333.634ZM327.525 538.814C327.525 551.773 328.45 555.66 334.374 555.66H334.93C340.669 555.475 341.78 551.588 341.78 538.814V459.208C341.78 446.249 340.854 442.362 334.93 442.177H334.374C328.45 442.362 327.525 446.435 327.525 459.208V538.814Z" fill="#24BBE0"/>
<path d="M207.454 591.575H206.454V592.575H207.454V591.575ZM207.454 560.844L206.499 560.55L206.454 560.694V560.844H207.454ZM242.444 446.99L241.515 446.619L241.5 446.657L241.488 446.696L242.444 446.99ZM244.11 444.768L244.665 445.601L245.497 445.046L244.942 444.214L244.11 444.768ZM243.369 443.658L244.201 443.103L243.672 442.31L242.855 442.8L243.369 443.658ZM207.454 444.583H206.454V445.583H207.454V444.583ZM207.454 406.447V405.447H206.454V406.447H207.454ZM284.838 406.447H285.838V405.447H284.838V406.447ZM284.838 434.401L285.793 434.698L285.838 434.553V434.401H284.838ZM248.738 550.477L249.632 550.924L249.669 550.851L249.693 550.774L248.738 550.477ZM246.516 553.439L245.962 552.607L245.036 553.224L245.748 554.079L246.516 553.439ZM247.442 554.55L246.674 555.19L247.249 555.88L247.997 555.382L247.442 554.55ZM284.838 553.439H285.838V552.439H284.838V553.439ZM284.838 591.575V592.575H285.838V591.575H284.838ZM207.454 591.575H208.454V560.844H207.454H206.454V591.575H207.454ZM207.454 560.844L208.41 561.138L243.4 447.284L242.444 446.99L241.488 446.696L206.499 560.55L207.454 560.844ZM242.444 446.99L243.372 447.361C243.518 446.998 243.746 446.613 244.002 446.278C244.265 445.934 244.511 445.703 244.665 445.601L244.11 444.768L243.555 443.936C243.153 444.205 242.752 444.621 242.413 445.064C242.067 445.516 241.74 446.057 241.515 446.619L242.444 446.99ZM244.11 444.768L244.942 444.214L244.201 443.103L243.369 443.658L242.537 444.212L243.278 445.323L244.11 444.768ZM243.369 443.658L242.855 442.8C242.531 442.994 241.963 443.197 241.224 443.349C240.502 443.498 239.69 443.583 238.926 443.583V444.583V445.583C239.828 445.583 240.775 445.484 241.627 445.308C242.462 445.136 243.282 444.877 243.884 444.515L243.369 443.658ZM238.926 444.583V443.583H207.454V444.583V445.583H238.926V444.583ZM207.454 444.583H208.454V406.447H207.454H206.454V444.583H207.454ZM207.454 406.447V407.447H284.838V406.447V405.447H207.454V406.447ZM284.838 406.447H283.838V434.401H284.838H285.838V406.447H284.838ZM284.838 434.401L283.883 434.104L247.783 550.18L248.738 550.477L249.693 550.774L285.793 434.698L284.838 434.401ZM248.738 550.477L247.844 550.03C247.271 551.174 246.818 552.036 245.962 552.607L246.516 553.439L247.071 554.271C248.436 553.361 249.094 552.001 249.632 550.924L248.738 550.477ZM246.516 553.439L245.748 554.079L246.674 555.19L247.442 554.55L248.21 553.909L247.285 552.799L246.516 553.439ZM247.442 554.55L247.997 555.382C248.867 554.802 250.484 554.439 252.255 554.439V553.439V552.439C250.325 552.439 248.239 552.817 246.887 553.718L247.442 554.55ZM252.255 553.439V554.439H284.838V553.439V552.439H252.255V553.439ZM284.838 553.439H283.838V591.575H284.838H285.838V553.439H284.838ZM284.838 591.575V590.575H207.454V591.575V592.575H284.838V591.575ZM333.634 403.855V402.855L333.625 402.855L333.634 403.855ZM335.67 403.855L335.679 402.855H335.67V403.855ZM334.93 555.66V556.66H334.946L334.962 556.66L334.93 555.66ZM334.93 442.177L334.961 441.177L334.945 441.177H334.93V442.177ZM334.374 442.177V441.177H334.359L334.343 441.177L334.374 442.177ZM333.634 593.797V592.797C323.403 592.797 315.815 590.697 310.172 587.332C304.534 583.971 300.77 579.307 298.25 574.064C293.181 563.519 293.165 550.702 293.165 541.591H292.165H291.165C291.165 550.622 291.149 563.908 296.447 574.93C299.111 580.471 303.122 585.457 309.148 589.05C315.168 592.639 323.13 594.797 333.634 594.797V593.797ZM292.165 541.591H293.165V456.246H292.165H291.165V541.591H292.165ZM292.165 456.246H293.165C293.165 447.14 293.227 434.366 298.319 423.821C300.851 418.576 304.622 413.899 310.254 410.502C315.892 407.103 323.459 404.946 333.643 404.855L333.634 403.855L333.625 402.855C323.167 402.949 315.23 405.166 309.221 408.79C303.208 412.417 299.192 417.412 296.518 422.951C291.196 433.973 291.165 447.211 291.165 456.246H292.165ZM333.634 403.855V404.855H335.67V403.855V402.855H333.634V403.855ZM335.67 403.855L335.661 404.855C345.845 404.946 353.413 407.103 359.05 410.502C364.682 413.899 368.453 418.576 370.986 423.821C376.077 434.366 376.139 447.14 376.139 456.246H377.139H378.139C378.139 447.211 378.108 433.973 372.787 422.951C370.112 417.412 366.096 412.417 360.083 408.79C354.074 405.166 346.137 402.949 335.679 402.855L335.67 403.855ZM377.139 456.246H376.139V541.591H377.139H378.139V456.246H377.139ZM377.139 541.591H376.139C376.139 550.702 376.123 563.519 371.054 574.064C368.534 579.307 364.77 583.971 359.132 587.332C353.489 590.697 345.901 592.797 335.67 592.797V593.797V594.797C346.174 594.797 354.137 592.639 360.157 589.05C366.182 585.457 370.194 580.471 372.857 574.93C378.155 563.908 378.139 550.622 378.139 541.591H377.139ZM335.67 593.797V592.797H333.634V593.797V594.797H335.67V593.797ZM327.525 538.814H326.525C326.525 542.06 326.582 544.766 326.765 546.995C326.947 549.215 327.258 551.024 327.792 552.448C328.333 553.892 329.124 554.989 330.28 555.702C331.419 556.403 332.796 556.66 334.374 556.66V555.66V554.66C332.991 554.66 332.031 554.431 331.33 553.999C330.647 553.578 330.095 552.893 329.664 551.746C329.226 550.578 328.935 548.984 328.758 546.831C328.583 544.687 328.525 542.047 328.525 538.814H327.525ZM334.374 555.66V556.66H334.93V555.66V554.66H334.374V555.66ZM334.93 555.66L334.962 556.66C336.5 556.61 337.846 556.31 338.965 555.586C340.097 554.853 340.888 553.756 341.44 552.316C342.513 549.521 342.78 545.164 342.78 538.814H341.78H340.78C340.78 545.238 340.49 549.211 339.573 551.599C339.131 552.752 338.568 553.46 337.878 553.907C337.174 554.363 336.229 554.618 334.898 554.661L334.93 555.66ZM341.78 538.814H342.78V459.208H341.78H340.78V538.814H341.78ZM341.78 459.208H342.78C342.78 452.775 342.56 448.37 341.514 445.554C340.973 444.101 340.187 442.992 339.041 442.253C337.911 441.525 336.54 441.226 334.961 441.177L334.93 442.177L334.899 443.176C336.282 443.219 337.248 443.477 337.957 443.934C338.651 444.381 339.207 445.089 339.639 446.251C340.536 448.665 340.78 452.683 340.78 459.208H341.78ZM334.93 442.177V441.177H334.374V442.177V443.177H334.93V442.177ZM334.374 442.177L334.343 441.177C332.757 441.227 331.384 441.539 330.254 442.285C329.111 443.04 328.328 444.165 327.79 445.626C326.744 448.463 326.525 452.865 326.525 459.208H327.525H328.525C328.525 452.778 328.768 448.757 329.666 446.318C330.1 445.141 330.659 444.414 331.356 443.954C332.066 443.485 333.03 443.219 334.406 443.176L334.374 442.177ZM327.525 459.208H326.525V538.814H327.525H328.525V459.208H327.525Z" fill="black" mask="url(#path-9-outside-4_22_54)"/>
<path d="M610.893 544.588C615.094 544.588 618.5 547.994 618.5 552.195C618.5 556.397 615.094 559.803 610.893 559.803C606.691 559.803 603.285 556.397 603.285 552.195C603.285 547.994 606.691 544.588 610.893 544.588Z" fill="#24BBE0" stroke="black"/>
<mask id="path-12-inside-5_22_54" fill="white">
<path d="M195.166 235.231C199.942 238.962 213.924 241.611 217.048 245.516C205.617 250.145 206.867 277.847 204.58 284.181C195.903 272.858 190.391 231.5 195.166 235.231Z"/>
</mask>
<path d="M217.048 245.516L233.199 232.593L250.542 254.268L224.812 264.689L217.048 245.516ZM195.166 235.231L207.902 218.931L195.166 235.231ZM204.58 284.181L224.037 291.204L211.185 326.806L188.162 296.763L204.58 284.181ZM217.048 245.516L200.896 258.439C202.368 260.279 203.75 261.198 204.054 261.398C204.463 261.666 204.585 261.695 204.2 261.515C203.353 261.118 202.009 260.596 199.709 259.767C197.772 259.069 194.873 258.053 192.304 256.998C190.019 256.06 186.001 254.32 182.431 251.531L195.166 235.231L207.902 218.931C206.72 218.008 206.241 217.998 208.018 218.728C209.511 219.341 211.198 219.931 213.744 220.85C215.927 221.637 218.962 222.743 221.765 224.058C223.204 224.733 224.969 225.639 226.759 226.814C228.444 227.92 230.946 229.776 233.199 232.593L217.048 245.516ZM195.166 235.231L182.431 251.531C184.963 253.51 193.1 258.386 203.006 253.847C210.673 250.334 212.982 243.699 213.284 242.867C214.32 240.017 214.096 238.21 214.088 239.826C214.077 241.703 214.395 245.591 215.237 250.687C216.053 255.62 217.214 260.807 218.551 265.156C220.08 270.134 221.191 271.849 220.999 271.598L204.58 284.181L188.162 296.763C183.631 290.851 180.799 283.15 179.004 277.305C177.015 270.832 175.471 263.789 174.42 257.434C173.397 251.242 172.689 244.782 172.717 239.601C172.728 237.687 172.789 233.172 174.403 228.731C174.995 227.103 177.667 219.95 185.774 216.236C196.119 211.496 204.773 216.486 207.902 218.931L195.166 235.231ZM204.58 284.181L185.124 277.157C184.676 278.398 184.673 278.976 184.849 277.807C184.983 276.921 185.125 275.704 185.319 273.906C185.672 270.618 186.158 265.673 186.989 260.762C187.8 255.961 189.148 249.805 191.777 244.038C194.316 238.469 199.398 230.346 209.283 226.343L217.048 245.516L224.812 264.689C228.982 263 229.933 260.076 229.42 261.201C228.997 262.128 228.372 264.161 227.781 267.656C227.209 271.04 226.864 274.498 226.452 278.33C226.263 280.092 226.038 282.114 225.758 283.974C225.52 285.55 225.056 288.38 224.037 291.204L204.58 284.181Z" fill="#F98330" mask="url(#path-12-inside-5_22_54)"/>
<path d="M273.882 238.548C273.903 240.754 273.776 242.992 273.497 245.175C272.241 244.194 270.885 243.245 269.43 242.361C270.873 241.119 272.38 239.831 273.882 238.548Z" stroke="#F98330" stroke-width="20.6855"/>
<path d="M242.125 255.961C237.286 258.576 233.482 262.429 230.898 267.142L231.191 267.254C231.529 267.241 233.428 267.34 237.543 266.559C240.953 265.913 244.824 264.869 248.92 263.538L248.208 262.271L244.075 254.907L242.125 255.961Z" stroke="#202835" stroke-width="49.6451"/>
<mask id="path-16-inside-6_22_54" fill="white">
<path d="M224.079 291.099C227.647 275.223 260.937 264.667 276.669 261.726C281.577 262.532 291.161 262.058 295.406 268.119C299.652 274.18 242.498 296.783 224.079 291.099Z"/>
</mask>
<path d="M276.669 261.726L264.047 194.22L275.902 192.003L287.804 193.959L276.669 261.726ZM224.079 291.099L203.828 356.721L143.15 337.995L157.075 276.039L224.079 291.099ZM295.406 268.119L239.157 307.52L239.157 307.52L295.406 268.119ZM276.669 261.726L289.292 329.231C288.078 329.458 285.553 330.031 282.438 330.986C279.317 331.942 276.638 332.966 274.767 333.836C272.494 334.893 273.428 334.782 275.908 332.687C277.289 331.52 279.956 329.059 282.792 325.049C285.69 320.951 289.18 314.627 291.084 306.158L224.079 291.099L157.075 276.039C162.582 251.539 177.689 235.859 187.271 227.764C197.488 219.133 208.397 213.223 216.859 209.288C233.806 201.409 251.748 196.519 264.047 194.22L276.669 261.726ZM224.079 291.099L244.331 225.477C236.699 223.122 231.324 223.326 230.829 223.339C229.693 223.369 229.815 223.458 231.461 223.163C234.781 222.567 239.82 221.227 245.279 219.29C247.865 218.373 250.149 217.461 251.967 216.663C253.9 215.815 254.718 215.354 254.593 215.426C254.511 215.472 253.763 215.898 252.578 216.728C251.586 217.423 248.989 219.299 245.866 222.407C243.546 224.717 236.187 232.276 231.353 244.931C228.695 251.888 226.276 261.782 227.128 273.649C228.018 286.055 232.298 297.728 239.157 307.52L295.406 268.119L351.655 228.718C367.909 251.923 365.991 277.376 359.661 293.945C354.447 307.594 346.278 316.255 342.765 319.752C335.058 327.424 326.799 332.361 322.692 334.706C312.918 340.286 301.524 345.075 291.204 348.736C280.604 352.497 268.166 356.121 255.721 358.354C246.518 360.006 225.324 363.355 203.828 356.721L224.079 291.099ZM276.669 261.726L287.804 193.959C286.146 193.686 283.922 193.484 287.829 193.87C289.988 194.084 294.799 194.571 300.336 195.729C309.898 197.727 334.507 204.238 351.655 228.718L295.406 268.119L239.157 307.52C252.059 325.939 269.754 329.656 272.236 330.175C274.233 330.592 275.462 330.669 274.312 330.555C274.055 330.529 273.813 330.507 273.345 330.462C272.946 330.424 272.338 330.366 271.689 330.299C270.531 330.18 268.215 329.933 265.535 329.493L276.669 261.726Z" fill="#0F0F0C" mask="url(#path-16-inside-6_22_54)"/>
<path d="M251.217 236.424L251.84 236.553C251.805 236.708 251.779 236.858 251.753 237.003L251.617 236.955L251.217 236.424ZM251.217 236.424L251.142 236.788L250.864 236.69L251.217 236.424ZM253.499 246.649C253.481 246.958 253.452 247.274 253.407 247.594C253.365 247.895 253.313 248.199 253.277 248.411C253.232 248.67 253.2 248.847 253.159 249.091C253.139 249.208 253.123 249.325 253.104 249.44C253.805 249.268 254.693 249.084 255.677 248.987C255.499 248.811 255.309 248.63 255.105 248.448L253.808 247.292L253.499 246.649ZM265.277 249.778L263.11 250.694L263.157 250.726L263.219 250.769L265.277 249.778Z" stroke="#EEC641" stroke-width="17.3758"/>
<path d="M276.669 261.726C258.091 262.654 223.883 277.747 224.079 291.099" stroke="#0F0F0C" stroke-width="0.413709"/>
<defs>
<filter id="filter0_f_22_54" x="0.400002" y="69.8612" width="791.2" height="660.2" filterUnits="userSpaceOnUse" color-interpolation-filters="sRGB">
<feFlood flood-opacity="0" result="BackgroundImageFix"/>
<feBlend mode="normal" in="SourceGraphic" in2="BackgroundImageFix" result="shape"/>
<feGaussianBlur stdDeviation="43.8" result="effect1_foregroundBlur_22_54"/>
</filter>
</defs>
</svg>
