<svg width="99" height="97" viewBox="0 0 99 97" fill="none" xmlns="http://www.w3.org/2000/svg">
<path d="M15.6766 42.4921C9.40177 42.4921 6.20283 38.9241 6.20283 31.9931V31.4599H14.1592V32.0341C14.1592 33.4285 15.0614 34.0847 15.5946 34.0847H20.8031C21.5824 34.0847 22.0745 33.7156 22.0745 33.1004V32.8953C22.0745 32.0751 20.8441 31.5419 13.8721 30.2705C10.058 29.1222 6.36688 26.8665 6.32586 21.3299V21.2069C6.32586 15.2601 9.81189 12.7174 15.5946 12.7174H20.8441C25.2324 12.7174 30.4 14.3989 30.4 22.3142V23.5446H22.4846V23.0524C22.4846 22.0681 22.1565 21.1248 21.0902 21.1248H15.8817C15.2255 21.1248 14.7333 21.535 14.7333 22.1501V22.2732C14.7333 23.0524 17.071 23.5035 22.3616 24.6519C26.3808 25.9233 30.441 27.7688 30.482 33.5925V33.7156C30.441 39.4573 26.9549 42.4921 20.9262 42.4921H15.6766ZM30.0379 42L38.5274 13.2915H49.2726L57.7621 42H49.2726L47.9602 37.6937H39.7988L38.4864 42H30.0379ZM41.5213 30.6397L41.7263 30.8447L41.8494 30.8037C42.0134 30.7217 42.1775 30.6807 42.3825 30.6807H45.3764C45.5815 30.6807 45.7455 30.7217 45.9506 30.8037L46.0326 30.8447L46.2377 30.6397L46.1146 30.4346C46.0326 30.3116 45.9916 30.0245 45.9506 29.9014L44.3101 23.6676C44.1461 22.9704 44.023 22.0271 44.023 21.494H43.7359C43.7359 22.0681 43.6129 22.9294 43.4489 23.6676L41.8084 29.9014C41.7674 30.0245 41.7263 30.3116 41.6443 30.4346L41.5213 30.6397Z" fill="white"/>
<path d="M46.9237 78.3197V49.6112H55.6183L62.7954 62.407C63.0825 63.0632 63.4106 64.1705 63.8207 65.688L64.1488 65.647L64.0258 64.8267C63.9027 63.6784 63.8207 62.8171 63.8207 62.202V49.6112H71.408V78.3197H62.5904L55.3312 64.5807C55.1672 64.1705 55.0031 63.6374 54.7981 62.9812L54.552 61.9969L54.2649 62.0379L54.511 64.2936C54.552 64.9088 54.593 65.5239 54.593 66.1391L54.552 78.3197H46.9237ZM73.4815 78.3197V49.6112H93.6184V58.0187H81.3558V60.1513H93.6184V67.7386H81.3558V69.9122H93.6184V78.3197H73.4815Z" fill="#24BBE0"/>
<path d="M58.8974 46.7896V11.9293H73.9898V20.3778H66.7717V26.2015H73.3336V33.9118H66.7717V46.7896H58.8974ZM75.6386 46.7896V11.9293H90.6491V20.3778H83.513V25.4633H90.6491V33.2146H83.513V38.3411H90.6491V46.7896H75.6386Z" fill="white"/>
<path d="M7.41117 85.1049V78.2969L15.1625 53.0744C15.2445 52.8694 15.4085 52.6643 15.5316 52.5823L15.3675 52.3362C15.1625 52.4592 14.7523 52.5413 14.3832 52.5413H7.41117V44.0928H24.5542V50.2856L16.5569 76.0002C16.4338 76.2462 16.3108 76.4923 16.0647 76.6564L16.2698 76.9024C16.5158 76.7384 16.926 76.6564 17.3361 76.6564H24.5542V85.1049H7.41117ZM35.3641 85.597C26.1774 85.597 26.1774 78.0508 26.1774 74.0316V55.125C26.1774 51.1058 26.2184 43.6006 35.3641 43.5186H35.8152C44.9609 43.6006 45.0019 51.1058 45.0019 55.125V74.0316C45.0019 78.0508 45.0019 85.597 35.8152 85.597H35.3641ZM34.0107 73.4164C34.0107 76.2873 34.2158 77.1485 35.5282 77.1485H35.6512C36.9226 77.1075 37.1686 76.2462 37.1686 73.4164V55.7812C37.1686 52.9104 36.9636 52.0491 35.6512 52.0081H35.5282C34.2158 52.0491 34.0107 52.9514 34.0107 55.7812V73.4164Z" fill="#24BBE0"/>
<circle cx="96.7861" cy="76.3295" r="1.79603" fill="#24BBE0"/>
<mask id="path-6-inside-1_27_206" fill="white">
<path d="M4.68902 6.11147C5.74697 6.93805 8.84433 7.52483 9.53641 8.38983C7.00407 9.41536 7.28098 15.5523 6.77449 16.9554C4.85223 14.447 3.63107 5.28489 4.68902 6.11147Z"/>
</mask>
<path d="M9.53641 8.38983L13.1146 5.52692L16.9566 10.3289L11.2565 12.6373L9.53641 8.38983ZM4.68902 6.11147L7.51034 2.50044L4.68902 6.11147ZM6.77449 16.9554L11.0848 18.5113L8.23771 26.3984L3.13722 19.7428L6.77449 16.9554ZM9.53641 8.38983L5.95825 11.2527C6.2845 11.6605 6.59044 11.8639 6.6579 11.9082C6.74845 11.9677 6.77558 11.9742 6.69014 11.9341C6.50263 11.8462 6.20477 11.7307 5.69531 11.547C5.2663 11.3923 4.62404 11.1673 4.05478 10.9336C3.54863 10.7258 2.65846 10.3403 1.8677 9.72251L4.68902 6.11147L7.51034 2.50044C7.24856 2.2959 7.14229 2.29379 7.53606 2.45548C7.86674 2.59126 8.24043 2.72206 8.80452 2.92548C9.28815 3.0999 9.96052 3.345 10.5815 3.6362C10.9003 3.7857 11.2912 3.9864 11.6877 4.24673C12.0612 4.4919 12.6153 4.90292 13.1146 5.52692L9.53641 8.38983ZM4.68902 6.11147L1.8677 9.72251C2.42872 10.1608 4.23128 11.2409 6.42567 10.2356C8.12431 9.45734 8.63573 7.98736 8.70276 7.80298C8.93225 7.17177 8.88263 6.77144 8.88068 7.12932C8.87842 7.5453 8.94876 8.40659 9.13535 9.53556C9.31597 10.6284 9.57336 11.7773 9.86938 12.7409C10.2081 13.8435 10.4544 14.2235 10.4118 14.168L6.77449 16.9554L3.13722 19.7428C2.13349 18.433 1.50623 16.7271 1.10844 15.4323C0.66791 13.9983 0.32571 12.438 0.0930015 11.0301C-0.13373 9.65831 -0.290457 8.22728 -0.284211 7.07944C-0.281903 6.65542 -0.268372 5.65531 0.0893228 4.67146C0.22046 4.31076 0.81224 2.72624 2.60829 1.90338C4.90008 0.853405 6.81708 1.95878 7.51034 2.50044L4.68902 6.11147ZM6.77449 16.9554L2.4642 15.3995C2.36498 15.6743 2.36435 15.8025 2.40342 15.5434C2.43299 15.3472 2.46453 15.0775 2.50737 14.6792C2.58572 13.9509 2.69341 12.8555 2.87733 11.7673C3.05708 10.7038 3.3557 9.34 3.93817 8.06247C4.50068 6.82872 5.62644 5.02924 7.81631 4.14239L9.53641 8.38983L11.2565 12.6373C12.1802 12.2632 12.391 11.6154 12.2773 11.8646C12.1837 12.07 12.0451 12.5204 11.9142 13.2947C11.7875 14.0444 11.7112 14.8104 11.6198 15.6594C11.5779 16.0497 11.5281 16.4977 11.466 16.9097C11.4134 17.2588 11.3106 17.8856 11.0848 18.5113L6.77449 16.9554Z" fill="#F98330" mask="url(#path-6-inside-1_27_206)"/>
<path d="M22.1256 6.84694C22.1304 7.33583 22.1023 7.83164 22.0405 8.31531C21.7622 8.09811 21.4623 7.88707 21.1399 7.6912C21.4594 7.41628 21.7931 7.13097 22.1256 6.84694Z" stroke="#F98330" stroke-width="4.58251"/>
<path d="M15.092 10.7035C14.02 11.2827 13.1791 12.1375 12.6067 13.1815L12.6694 13.2051C12.7434 13.2022 13.1638 13.225 14.0765 13.0518C14.8321 12.9085 15.69 12.6764 16.5977 12.3815L16.4397 12.1019L15.5243 10.4694L15.092 10.7035Z" stroke="#202835" stroke-width="10.998"/>
<mask id="path-10-inside-2_27_206" fill="white">
<path d="M11.0942 18.488C11.8846 14.9711 19.2595 12.6325 22.7446 11.9809C23.8317 12.1595 25.9549 12.0545 26.8954 13.3972C27.8359 14.7399 15.1745 19.7472 11.0942 18.488Z"/>
</mask>
<path d="M22.7446 11.9809L19.9483 -2.97388L22.5747 -3.46497L25.2112 -3.03177L22.7446 11.9809ZM11.0942 18.488L6.60774 33.0254L-6.83428 28.8771L-3.7495 15.1519L11.0942 18.488ZM26.8954 13.3972L39.3564 4.6686L39.3564 4.6686L26.8954 13.3972ZM22.7446 11.9809L25.5409 26.9357C25.2721 26.9859 24.7127 27.1128 24.0225 27.3243C23.331 27.5362 22.7376 27.763 22.3231 27.9557C21.8195 28.1898 22.0266 28.1653 22.576 27.7012C22.8819 27.4427 23.4727 26.8976 24.1009 26.0091C24.7429 25.1012 25.5162 23.7002 25.9378 21.8242L11.0942 18.488L-3.7495 15.1519C-2.52962 9.72421 0.817077 6.25055 2.93983 4.45728C5.20323 2.54518 7.62005 1.23584 9.49464 0.364261C13.2489 -1.38125 17.2238 -2.46444 19.9483 -2.97388L22.7446 11.9809ZM11.0942 18.488L15.5806 3.95061C13.8897 3.42879 12.6992 3.47418 12.5893 3.47703C12.3378 3.48354 12.3649 3.50332 12.7295 3.43788C13.4649 3.30592 14.5812 3.00913 15.7906 2.58004C16.3635 2.37678 16.8695 2.1748 17.2723 1.99811C17.7005 1.8102 17.8816 1.70807 17.8539 1.72388C17.8358 1.73417 17.6702 1.82856 17.4076 2.01244C17.1878 2.16644 16.6124 2.582 15.9207 3.27054C15.4067 3.78221 13.7764 5.45692 12.7055 8.26043C12.1168 9.80159 11.5809 11.9933 11.7695 14.6222C11.9666 17.3707 12.915 19.9566 14.4344 22.1258L26.8954 13.3972L39.3564 4.6686C42.9572 9.80921 42.5322 15.448 41.1301 19.1185C39.975 22.1423 38.1652 24.061 37.387 24.8357C35.6797 26.5352 33.8501 27.629 32.9402 28.1485C30.7749 29.3847 28.2507 30.4456 25.9646 31.2566C23.6162 32.0898 20.8608 32.8927 18.104 33.3874C16.065 33.7533 11.3698 34.4951 6.60774 33.0254L11.0942 18.488ZM22.7446 11.9809L25.2112 -3.03177C24.844 -3.0921 24.3512 -3.13697 25.2167 -3.05137C25.6951 -3.00407 26.7609 -2.89602 27.9876 -2.63962C30.1058 -2.19689 35.5576 -0.754521 39.3564 4.6686L26.8954 13.3972L14.4344 22.1258C17.2927 26.2062 21.2126 27.0298 21.7624 27.1447C22.2048 27.2371 22.4772 27.254 22.2223 27.2288C22.1654 27.2232 22.1119 27.2181 22.0081 27.2083C21.9198 27.1998 21.785 27.187 21.6413 27.1722C21.3847 27.1458 20.8717 27.0911 20.2779 26.9935L22.7446 11.9809Z" fill="#0F0F0C" mask="url(#path-10-inside-2_27_206)"/>
<path d="M17.1059 6.37559L17.2478 6.40441C17.2402 6.4388 17.2327 6.47184 17.2269 6.50403L17.1958 6.49375L17.1059 6.37559ZM17.1059 6.37559L17.0897 6.45614L17.0276 6.4346L17.1059 6.37559ZM17.6111 8.63982C17.6073 8.70864 17.6015 8.77879 17.5915 8.85006C17.5821 8.91679 17.5701 8.9845 17.562 9.03132C17.5522 9.08853 17.5451 9.12768 17.536 9.1815C17.5317 9.20698 17.5292 9.23286 17.5253 9.2579C17.68 9.21994 17.8763 9.18071 18.0933 9.15925C18.054 9.12036 18.0125 9.07928 17.9673 9.03897L17.6797 8.78357L17.6111 8.63982Z" stroke="#EEC641" stroke-width="3.84931"/>
<path d="M22.7446 11.9808C18.6289 12.1865 11.0508 15.53 11.0942 18.488" stroke="#0F0F0C" stroke-width="0.0916503"/>
</svg>
