<svg width="420" height="642" viewBox="0 0 420 642" fill="none" xmlns="http://www.w3.org/2000/svg">
<mask id="path-1-outside-1_22_40" maskUnits="userSpaceOnUse" x="1.22363" y="263" width="236" height="138" fill="black">
<rect fill="white" x="1.22363" y="263" width="236" height="138"/>
<path d="M45.7652 399.222C17.4406 399.222 3.00056 383.115 3.00056 351.829V349.422H38.9155V352.014C38.9155 358.308 42.9883 361.27 45.395 361.27H68.9063C72.4237 361.27 74.6453 359.604 74.6453 356.827V355.901C74.6453 352.199 69.0914 349.792 37.6196 344.053C20.4026 338.87 3.74107 328.688 3.55594 303.695V303.14C3.55594 276.296 19.2919 264.818 45.395 264.818H69.0914C88.9002 264.818 112.226 272.409 112.226 308.138V313.692H76.4966V311.471C76.4966 307.028 75.0155 302.77 70.2022 302.77H46.6909C43.7288 302.77 41.5073 304.621 41.5073 307.398V307.953C41.5073 311.471 52.0596 313.507 75.9412 318.691C94.0838 324.43 112.411 332.76 112.597 359.049V359.604C112.411 385.522 96.6755 399.222 69.4617 399.222H45.7652ZM110.592 397L148.914 267.41H197.417L235.739 397H197.417L191.493 377.562H154.653L148.728 397H110.592ZM162.428 345.719L163.354 346.645L163.909 346.46C164.65 346.09 165.39 345.905 166.316 345.905H179.83C180.756 345.905 181.496 346.09 182.422 346.46L182.792 346.645L183.718 345.719L183.162 344.794C182.792 344.238 182.607 342.942 182.422 342.387L175.017 314.248C174.276 311.1 173.721 306.842 173.721 304.436H172.425C172.425 307.028 171.87 310.915 171.129 314.248L163.724 342.387C163.539 342.942 163.354 344.238 162.983 344.794L162.428 345.719Z"/>
</mask>
<path d="M45.7652 399.222C17.4406 399.222 3.00056 383.115 3.00056 351.829V349.422H38.9155V352.014C38.9155 358.308 42.9883 361.27 45.395 361.27H68.9063C72.4237 361.27 74.6453 359.604 74.6453 356.827V355.901C74.6453 352.199 69.0914 349.792 37.6196 344.053C20.4026 338.87 3.74107 328.688 3.55594 303.695V303.14C3.55594 276.296 19.2919 264.818 45.395 264.818H69.0914C88.9002 264.818 112.226 272.409 112.226 308.138V313.692H76.4966V311.471C76.4966 307.028 75.0155 302.77 70.2022 302.77H46.6909C43.7288 302.77 41.5073 304.621 41.5073 307.398V307.953C41.5073 311.471 52.0596 313.507 75.9412 318.691C94.0838 324.43 112.411 332.76 112.597 359.049V359.604C112.411 385.522 96.6755 399.222 69.4617 399.222H45.7652ZM110.592 397L148.914 267.41H197.417L235.739 397H197.417L191.493 377.562H154.653L148.728 397H110.592ZM162.428 345.719L163.354 346.645L163.909 346.46C164.65 346.09 165.39 345.905 166.316 345.905H179.83C180.756 345.905 181.496 346.09 182.422 346.46L182.792 346.645L183.718 345.719L183.162 344.794C182.792 344.238 182.607 342.942 182.422 342.387L175.017 314.248C174.276 311.1 173.721 306.842 173.721 304.436H172.425C172.425 307.028 171.87 310.915 171.129 314.248L163.724 342.387C163.539 342.942 163.354 344.238 162.983 344.794L162.428 345.719Z" fill="white"/>
<path d="M3.00056 349.422V348.422H2.00056V349.422H3.00056ZM38.9155 349.422H39.9155V348.422H38.9155V349.422ZM37.6196 344.053L37.3313 345.011L37.385 345.027L37.4402 345.037L37.6196 344.053ZM3.55594 303.695H2.55592L2.55597 303.703L3.55594 303.695ZM112.226 313.692V314.692H113.226V313.692H112.226ZM76.4966 313.692H75.4966V314.692H76.4966V313.692ZM75.9412 318.691L76.2428 317.737L76.1986 317.723L76.1533 317.713L75.9412 318.691ZM112.597 359.049H113.597L113.597 359.042L112.597 359.049ZM112.597 359.604L113.597 359.611V359.604H112.597ZM45.7652 399.222V398.222C31.7922 398.222 21.4101 394.254 14.5041 386.588C7.58098 378.903 4.00056 367.336 4.00056 351.829H3.00056H2.00056C2.00056 367.608 5.64015 379.737 13.0182 387.927C20.4134 396.136 31.4137 400.222 45.7652 400.222V399.222ZM3.00056 351.829H4.00056V349.422H3.00056H2.00056V351.829H3.00056ZM3.00056 349.422V350.422H38.9155V349.422V348.422H3.00056V349.422ZM38.9155 349.422H37.9155V352.014H38.9155H39.9155V349.422H38.9155ZM38.9155 352.014H37.9155C37.9155 358.718 42.3034 362.27 45.395 362.27V361.27V360.27C43.6732 360.27 39.9155 357.898 39.9155 352.014H38.9155ZM45.395 361.27V362.27H68.9063V361.27V360.27H45.395V361.27ZM68.9063 361.27V362.27C70.8086 362.27 72.4816 361.821 73.7036 360.883C74.9563 359.922 75.6453 358.512 75.6453 356.827H74.6453H73.6453C73.6453 357.919 73.2235 358.731 72.486 359.297C71.7179 359.886 70.5214 360.27 68.9063 360.27V361.27ZM74.6453 356.827H75.6453V355.901H74.6453H73.6453V356.827H74.6453ZM74.6453 355.901H75.6453C75.6453 354.65 75.1429 353.532 73.9224 352.524C72.7641 351.568 70.9428 350.694 68.2518 349.793C62.851 347.985 53.525 345.937 37.799 343.069L37.6196 344.053L37.4402 345.037C53.186 347.908 62.3729 349.934 67.6169 351.689C70.2483 352.57 71.7826 353.351 72.649 354.066C73.4534 354.73 73.6453 355.302 73.6453 355.901H74.6453ZM37.6196 344.053L37.9079 343.096C29.3714 340.526 21.0806 336.746 14.9066 330.594C8.76241 324.472 4.64664 315.935 4.55592 303.688L3.55594 303.695L2.55597 303.703C2.65038 316.448 6.95796 325.498 13.495 332.011C20.0023 338.494 28.6508 342.397 37.3313 345.011L37.6196 344.053ZM3.55594 303.695H4.55594V303.14H3.55594H2.55594V303.695H3.55594ZM3.55594 303.14H4.55594C4.55594 289.917 8.42446 280.652 15.341 274.669C22.2847 268.663 32.4685 265.818 45.395 265.818V264.818V263.818C32.2184 263.818 21.4826 266.712 14.0326 273.156C6.55539 279.624 2.55594 289.519 2.55594 303.14H3.55594ZM45.395 264.818V265.818H69.0914V264.818V263.818H45.395V264.818ZM69.0914 264.818V265.818C78.8962 265.818 89.422 267.702 97.479 273.874C105.486 280.007 111.226 290.51 111.226 308.138H112.226H113.226C113.226 290.037 107.304 278.88 98.6953 272.286C90.1371 265.73 79.0954 263.818 69.0914 263.818V264.818ZM112.226 308.138H111.226V313.692H112.226H113.226V308.138H112.226ZM112.226 313.692V312.692H76.4966V313.692V314.692H112.226V313.692ZM76.4966 313.692H77.4966V311.471H76.4966H75.4966V313.692H76.4966ZM76.4966 311.471H77.4966C77.4966 309.167 77.1174 306.782 76.0119 304.939C74.8642 303.027 72.9696 301.77 70.2022 301.77V302.77V303.77C72.2481 303.77 73.5007 304.642 74.2969 305.968C75.1352 307.366 75.4966 309.331 75.4966 311.471H76.4966ZM70.2022 302.77V301.77H46.6909V302.77V303.77H70.2022V302.77ZM46.6909 302.77V301.77C45.0047 301.77 43.4639 302.298 42.3298 303.29C41.1849 304.292 40.5073 305.724 40.5073 307.398H41.5073H42.5073C42.5073 306.295 42.9404 305.413 43.6468 304.795C44.364 304.167 45.4149 303.77 46.6909 303.77V302.77ZM41.5073 307.398H40.5073V307.953H41.5073H42.5073V307.398H41.5073ZM41.5073 307.953H40.5073C40.5073 309.412 41.6145 310.456 43.0389 311.257C44.5102 312.085 46.6717 312.857 49.4955 313.659C55.1582 315.267 63.8124 317.081 75.729 319.668L75.9412 318.691L76.1533 317.713C64.1883 315.116 55.6256 313.321 50.0418 311.735C47.2423 310.94 45.2731 310.22 44.0196 309.514C42.7191 308.783 42.5073 308.253 42.5073 307.953H41.5073ZM75.9412 318.691L75.6396 319.644C84.6972 322.509 93.6368 325.977 100.34 331.912C106.991 337.802 111.506 346.183 111.597 359.056L112.597 359.049L113.597 359.042C113.502 345.627 108.761 336.698 101.666 330.415C94.6233 324.179 85.3277 320.611 76.2428 317.737L75.9412 318.691ZM112.597 359.049H111.597V359.604H112.597H113.597V359.049H112.597ZM112.597 359.604L111.597 359.597C111.506 372.35 107.596 381.959 100.494 388.391C93.377 394.836 82.9123 398.222 69.4617 398.222V399.222V400.222C83.2249 400.222 94.2351 396.757 101.836 389.873C109.452 382.976 113.503 372.776 113.597 359.611L112.597 359.604ZM69.4617 399.222V398.222H45.7652V399.222V400.222H69.4617V399.222ZM110.592 397L109.633 396.716L109.253 398H110.592V397ZM148.914 267.41V266.41H148.167L147.955 267.127L148.914 267.41ZM197.417 267.41L198.376 267.127L198.164 266.41H197.417V267.41ZM235.739 397V398H237.077L236.698 396.716L235.739 397ZM197.417 397L196.461 397.292L196.677 398H197.417V397ZM191.493 377.562L192.45 377.27L192.234 376.562H191.493V377.562ZM154.653 377.562V376.562H153.912L153.696 377.27L154.653 377.562ZM148.728 397V398H149.469L149.685 397.292L148.728 397ZM162.428 345.719L161.57 345.205L161.169 345.874L161.721 346.427L162.428 345.719ZM163.354 346.645L162.646 347.352L163.084 347.789L163.67 347.594L163.354 346.645ZM163.909 346.46L164.225 347.409L164.293 347.386L164.356 347.354L163.909 346.46ZM182.422 346.46L182.869 345.566L182.832 345.547L182.793 345.531L182.422 346.46ZM182.792 346.645L182.345 347.539L182.99 347.862L183.499 347.352L182.792 346.645ZM183.718 345.719L184.425 346.427L184.977 345.874L184.575 345.205L183.718 345.719ZM183.162 344.794L184.02 344.279L184.008 344.259L183.994 344.239L183.162 344.794ZM182.422 342.387L181.455 342.642L181.463 342.673L181.473 342.703L182.422 342.387ZM175.017 314.248L174.043 314.477L174.046 314.489L174.05 314.502L175.017 314.248ZM173.721 304.436H174.721V303.436H173.721V304.436ZM172.425 304.436V303.436H171.425V304.436H172.425ZM171.129 314.248L172.096 314.502L172.101 314.483L172.105 314.465L171.129 314.248ZM163.724 342.387L164.673 342.703L164.683 342.673L164.691 342.642L163.724 342.387ZM162.983 344.794L162.151 344.239L162.138 344.259L162.126 344.279L162.983 344.794ZM110.592 397L111.551 397.284L149.873 267.694L148.914 267.41L147.955 267.127L109.633 396.716L110.592 397ZM148.914 267.41V268.41H197.417V267.41V266.41H148.914V267.41ZM197.417 267.41L196.458 267.694L234.78 397.284L235.739 397L236.698 396.716L198.376 267.127L197.417 267.41ZM235.739 397V396H197.417V397V398H235.739V397ZM197.417 397L198.374 396.708L192.45 377.27L191.493 377.562L190.537 377.853L196.461 397.292L197.417 397ZM191.493 377.562V376.562H154.653V377.562V378.562H191.493V377.562ZM154.653 377.562L153.696 377.27L147.772 396.708L148.728 397L149.685 397.292L155.609 377.853L154.653 377.562ZM148.728 397V396H110.592V397V398H148.728V397ZM162.428 345.719L161.721 346.427L162.646 347.352L163.354 346.645L164.061 345.938L163.135 345.012L162.428 345.719ZM163.354 346.645L163.67 347.594L164.225 347.409L163.909 346.46L163.593 345.511L163.037 345.696L163.354 346.645ZM163.909 346.46L164.356 347.354C164.957 347.054 165.544 346.905 166.316 346.905V345.905V344.905C165.236 344.905 164.342 345.125 163.462 345.566L163.909 346.46ZM166.316 345.905V346.905H179.83V345.905V344.905H166.316V345.905ZM179.83 345.905V346.905C180.593 346.905 181.204 347.05 182.05 347.388L182.422 346.46L182.793 345.531C181.788 345.129 180.919 344.905 179.83 344.905V345.905ZM182.422 346.46L181.975 347.354L182.345 347.539L182.792 346.645L183.239 345.751L182.869 345.566L182.422 346.46ZM182.792 346.645L183.499 347.352L184.425 346.427L183.718 345.719L183.011 345.012L182.085 345.938L182.792 346.645ZM183.718 345.719L184.575 345.205L184.02 344.279L183.162 344.794L182.305 345.308L182.86 346.234L183.718 345.719ZM183.162 344.794L183.994 344.239C183.92 344.127 183.814 343.833 183.693 343.348C183.599 342.972 183.478 342.394 183.371 342.071L182.422 342.387L181.473 342.703C181.55 342.935 181.615 343.284 181.753 343.833C181.863 344.273 182.035 344.905 182.33 345.348L183.162 344.794ZM182.422 342.387L183.389 342.133L175.984 313.993L175.017 314.248L174.05 314.502L181.455 342.642L182.422 342.387ZM175.017 314.248L175.99 314.019C175.262 310.925 174.721 306.746 174.721 304.436H173.721H172.721C172.721 306.939 173.29 311.276 174.043 314.477L175.017 314.248ZM173.721 304.436V303.436H172.425V304.436V305.436H173.721V304.436ZM172.425 304.436H171.425C171.425 306.925 170.886 310.733 170.153 314.031L171.129 314.248L172.105 314.465C172.853 311.097 173.425 307.13 173.425 304.436H172.425ZM171.129 314.248L170.162 313.993L162.757 342.133L163.724 342.387L164.691 342.642L172.096 314.502L171.129 314.248ZM163.724 342.387L162.775 342.071C162.667 342.394 162.547 342.972 162.453 343.348C162.332 343.833 162.226 344.127 162.151 344.239L162.983 344.794L163.815 345.348C164.111 344.905 164.283 344.273 164.393 343.833C164.531 343.284 164.595 342.935 164.673 342.703L163.724 342.387ZM162.983 344.794L162.126 344.279L161.57 345.205L162.428 345.719L163.285 346.234L163.841 345.308L162.983 344.794Z" fill="black" mask="url(#path-1-outside-1_22_40)"/>
<mask id="path-3-outside-2_22_40" maskUnits="userSpaceOnUse" x="185.186" y="429.947" width="214" height="132" fill="black">
<rect fill="white" x="185.186" y="429.947" width="214" height="132"/>
<path d="M186.814 560.947V431.357H226.061L258.459 489.117C259.755 492.079 261.236 497.078 263.087 503.928L264.568 503.742L264.013 500.04C263.457 494.856 263.087 490.969 263.087 488.192V431.357H297.336V560.947H257.533L224.766 498.929C224.025 497.078 223.285 494.671 222.359 491.709L221.248 487.266L219.952 487.451L221.063 497.633C221.248 500.41 221.433 503.187 221.433 505.964L221.248 560.947H186.814ZM306.696 560.947V431.357H397.594V469.309H342.24V478.935H397.594V513.184H342.24V522.996H397.594V560.947H306.696Z"/>
</mask>
<path d="M186.814 560.947V431.357H226.061L258.459 489.117C259.755 492.079 261.236 497.078 263.087 503.928L264.568 503.742L264.013 500.04C263.457 494.856 263.087 490.969 263.087 488.192V431.357H297.336V560.947H257.533L224.766 498.929C224.025 497.078 223.285 494.671 222.359 491.709L221.248 487.266L219.952 487.451L221.063 497.633C221.248 500.41 221.433 503.187 221.433 505.964L221.248 560.947H186.814ZM306.696 560.947V431.357H397.594V469.309H342.24V478.935H397.594V513.184H342.24V522.996H397.594V560.947H306.696Z" fill="#24BBE0"/>
<path d="M186.814 560.947H185.814V561.947H186.814V560.947ZM186.814 431.357V430.357H185.814V431.357H186.814ZM226.061 431.357L226.934 430.868L226.647 430.357H226.061V431.357ZM258.459 489.117L259.375 488.716L259.355 488.671L259.331 488.628L258.459 489.117ZM263.087 503.928L262.122 504.188L262.349 505.028L263.211 504.92L263.087 503.928ZM264.568 503.742L264.692 504.735L265.709 504.608L265.557 503.594L264.568 503.742ZM264.013 500.04L263.018 500.146L263.021 500.167L263.024 500.188L264.013 500.04ZM263.087 431.357V430.357H262.087V431.357H263.087ZM297.336 431.357H298.336V430.357H297.336V431.357ZM297.336 560.947V561.947H298.336V560.947H297.336ZM257.533 560.947L256.649 561.414L256.931 561.947H257.533V560.947ZM224.766 498.929L223.837 499.301L223.857 499.35L223.881 499.396L224.766 498.929ZM222.359 491.709L221.389 491.952L221.396 491.98L221.404 492.007L222.359 491.709ZM221.248 487.266L222.218 487.023L222 486.149L221.107 486.276L221.248 487.266ZM219.952 487.451L219.811 486.461L218.853 486.598L218.958 487.56L219.952 487.451ZM221.063 497.633L222.061 497.567L222.059 497.546L222.057 497.525L221.063 497.633ZM221.433 505.964L222.433 505.967V505.964H221.433ZM221.248 560.947V561.947H222.245L222.248 560.951L221.248 560.947ZM186.814 560.947H187.814V431.357H186.814H185.814V560.947H186.814ZM186.814 431.357V432.357H226.061V431.357V430.357H186.814V431.357ZM226.061 431.357L225.189 431.846L257.587 489.607L258.459 489.117L259.331 488.628L226.934 430.868L226.061 431.357ZM258.459 489.117L257.543 489.518C258.803 492.4 260.266 497.323 262.122 504.188L263.087 503.928L264.053 503.667C262.206 496.833 260.706 491.759 259.375 488.716L258.459 489.117ZM263.087 503.928L263.211 504.92L264.692 504.735L264.568 503.742L264.444 502.75L262.963 502.935L263.087 503.928ZM264.568 503.742L265.557 503.594L265.002 499.892L264.013 500.04L263.024 500.188L263.579 503.891L264.568 503.742ZM264.013 500.04L265.007 499.933C264.45 494.737 264.087 490.905 264.087 488.192H263.087H262.087C262.087 491.032 262.465 494.976 263.018 500.146L264.013 500.04ZM263.087 488.192H264.087V431.357H263.087H262.087V488.192H263.087ZM263.087 431.357V432.357H297.336V431.357V430.357H263.087V431.357ZM297.336 431.357H296.336V560.947H297.336H298.336V431.357H297.336ZM297.336 560.947V559.947H257.533V560.947V561.947H297.336V560.947ZM257.533 560.947L258.417 560.48L225.65 498.462L224.766 498.929L223.881 499.396L256.649 561.414L257.533 560.947ZM224.766 498.929L225.694 498.558C224.972 496.752 224.245 494.392 223.313 491.411L222.359 491.709L221.404 492.007C222.324 494.951 223.078 497.404 223.837 499.301L224.766 498.929ZM222.359 491.709L223.329 491.467L222.218 487.023L221.248 487.266L220.278 487.509L221.389 491.952L222.359 491.709ZM221.248 487.266L221.107 486.276L219.811 486.461L219.952 487.451L220.094 488.441L221.39 488.256L221.248 487.266ZM219.952 487.451L218.958 487.56L220.069 497.742L221.063 497.633L222.057 497.525L220.946 487.343L219.952 487.451ZM221.063 497.633L220.065 497.7C220.251 500.482 220.433 503.226 220.433 505.964H221.433H222.433C222.433 503.148 222.246 500.338 222.061 497.567L221.063 497.633ZM221.433 505.964L220.433 505.961L220.248 560.944L221.248 560.947L222.248 560.951L222.433 505.967L221.433 505.964ZM221.248 560.947V559.947H186.814V560.947V561.947H221.248V560.947ZM306.696 560.947H305.696V561.947H306.696V560.947ZM306.696 431.357V430.357H305.696V431.357H306.696ZM397.594 431.357H398.594V430.357H397.594V431.357ZM397.594 469.309V470.309H398.594V469.309H397.594ZM342.24 469.309V468.309H341.24V469.309H342.24ZM342.24 478.935H341.24V479.935H342.24V478.935ZM397.594 478.935H398.594V477.935H397.594V478.935ZM397.594 513.184V514.184H398.594V513.184H397.594ZM342.24 513.184V512.184H341.24V513.184H342.24ZM342.24 522.996H341.24V523.996H342.24V522.996ZM397.594 522.996H398.594V521.996H397.594V522.996ZM397.594 560.947V561.947H398.594V560.947H397.594ZM306.696 560.947H307.696V431.357H306.696H305.696V560.947H306.696ZM306.696 431.357V432.357H397.594V431.357V430.357H306.696V431.357ZM397.594 431.357H396.594V469.309H397.594H398.594V431.357H397.594ZM397.594 469.309V468.309H342.24V469.309V470.309H397.594V469.309ZM342.24 469.309H341.24V478.935H342.24H343.24V469.309H342.24ZM342.24 478.935V479.935H397.594V478.935V477.935H342.24V478.935ZM397.594 478.935H396.594V513.184H397.594H398.594V478.935H397.594ZM397.594 513.184V512.184H342.24V513.184V514.184H397.594V513.184ZM342.24 513.184H341.24V522.996H342.24H343.24V513.184H342.24ZM342.24 522.996V523.996H397.594V522.996V521.996H342.24V522.996ZM397.594 522.996H396.594V560.947H397.594H398.594V522.996H397.594ZM397.594 560.947V559.947H306.696V560.947V561.947H397.594V560.947Z" fill="black" mask="url(#path-3-outside-2_22_40)"/>
<mask id="path-5-outside-3_22_40" maskUnits="userSpaceOnUse" x="239.235" y="259.62" width="146" height="160" fill="black">
<rect fill="white" x="239.235" y="259.62" width="146" height="160"/>
<path d="M240.863 418.62V261.261H308.99V299.397H276.408V325.686H306.028V360.49H276.408V418.62H240.863ZM316.433 418.62V261.261H384.19V299.397H351.978V322.353H384.19V357.342H351.978V380.484H384.19V418.62H316.433Z"/>
</mask>
<path d="M240.863 418.62V261.261H308.99V299.397H276.408V325.686H306.028V360.49H276.408V418.62H240.863ZM316.433 418.62V261.261H384.19V299.397H351.978V322.353H384.19V357.342H351.978V380.484H384.19V418.62H316.433Z" fill="white"/>
<path d="M240.863 418.62H239.863V419.62H240.863V418.62ZM240.863 261.261V260.261H239.863V261.261H240.863ZM308.99 261.261H309.99V260.261H308.99V261.261ZM308.99 299.397V300.397H309.99V299.397H308.99ZM276.408 299.397V298.397H275.408V299.397H276.408ZM276.408 325.686H275.408V326.686H276.408V325.686ZM306.028 325.686H307.028V324.686H306.028V325.686ZM306.028 360.49V361.49H307.028V360.49H306.028ZM276.408 360.49V359.49H275.408V360.49H276.408ZM276.408 418.62V419.62H277.408V418.62H276.408ZM240.863 418.62H241.863V261.261H240.863H239.863V418.62H240.863ZM240.863 261.261V262.261H308.99V261.261V260.261H240.863V261.261ZM308.99 261.261H307.99V299.397H308.99H309.99V261.261H308.99ZM308.99 299.397V298.397H276.408V299.397V300.397H308.99V299.397ZM276.408 299.397H275.408V325.686H276.408H277.408V299.397H276.408ZM276.408 325.686V326.686H306.028V325.686V324.686H276.408V325.686ZM306.028 325.686H305.028V360.49H306.028H307.028V325.686H306.028ZM306.028 360.49V359.49H276.408V360.49V361.49H306.028V360.49ZM276.408 360.49H275.408V418.62H276.408H277.408V360.49H276.408ZM276.408 418.62V417.62H240.863V418.62V419.62H276.408V418.62ZM316.433 418.62H315.433V419.62H316.433V418.62ZM316.433 261.261V260.261H315.433V261.261H316.433ZM384.19 261.261H385.19V260.261H384.19V261.261ZM384.19 299.397V300.397H385.19V299.397H384.19ZM351.978 299.397V298.397H350.978V299.397H351.978ZM351.978 322.353H350.978V323.353H351.978V322.353ZM384.19 322.353H385.19V321.353H384.19V322.353ZM384.19 357.342V358.342H385.19V357.342H384.19ZM351.978 357.342V356.342H350.978V357.342H351.978ZM351.978 380.484H350.978V381.484H351.978V380.484ZM384.19 380.484H385.19V379.484H384.19V380.484ZM384.19 418.62V419.62H385.19V418.62H384.19ZM316.433 418.62H317.433V261.261H316.433H315.433V418.62H316.433ZM316.433 261.261V262.261H384.19V261.261V260.261H316.433V261.261ZM384.19 261.261H383.19V299.397H384.19H385.19V261.261H384.19ZM384.19 299.397V298.397H351.978V299.397V300.397H384.19V299.397ZM351.978 299.397H350.978V322.353H351.978H352.978V299.397H351.978ZM351.978 322.353V323.353H384.19V322.353V321.353H351.978V322.353ZM384.19 322.353H383.19V357.342H384.19H385.19V322.353H384.19ZM384.19 357.342V356.342H351.978V357.342V358.342H384.19V357.342ZM351.978 357.342H350.978V380.484H351.978H352.978V357.342H351.978ZM351.978 380.484V381.484H384.19V380.484V379.484H351.978V380.484ZM384.19 380.484H383.19V418.62H384.19H385.19V380.484H384.19ZM384.19 418.62V417.62H316.433V418.62V419.62H384.19V418.62Z" fill="black" mask="url(#path-5-outside-3_22_40)"/>
<mask id="path-7-outside-4_22_40" maskUnits="userSpaceOnUse" x="6.82617" y="402.575" width="173" height="193" fill="black">
<rect fill="white" x="6.82617" y="402.575" width="173" height="193"/>
<path d="M8.45438 591.575V560.844L43.4437 446.99C43.8139 446.064 44.5544 445.139 45.1098 444.768L44.3693 443.658C43.4437 444.213 41.5924 444.583 39.9262 444.583H8.45438V406.447H85.8381V434.401L49.738 550.477C49.1826 551.588 48.6273 552.698 47.5165 553.439L48.4421 554.55C49.5529 553.809 51.4042 553.439 53.2555 553.439H85.8381V591.575H8.45438ZM134.634 593.797C93.1651 593.797 93.1651 559.733 93.1651 541.591V456.246C93.1651 438.104 93.3502 404.225 134.634 403.855H136.67C177.954 404.225 178.139 438.104 178.139 456.246V541.591C178.139 559.733 178.139 593.797 136.67 593.797H134.634ZM128.525 538.814C128.525 551.773 129.45 555.66 135.374 555.66H135.93C141.669 555.475 142.78 551.588 142.78 538.814V459.208C142.78 446.249 141.854 442.362 135.93 442.177H135.374C129.45 442.362 128.525 446.435 128.525 459.208V538.814Z"/>
</mask>
<path d="M8.45438 591.575V560.844L43.4437 446.99C43.8139 446.064 44.5544 445.139 45.1098 444.768L44.3693 443.658C43.4437 444.213 41.5924 444.583 39.9262 444.583H8.45438V406.447H85.8381V434.401L49.738 550.477C49.1826 551.588 48.6273 552.698 47.5165 553.439L48.4421 554.55C49.5529 553.809 51.4042 553.439 53.2555 553.439H85.8381V591.575H8.45438ZM134.634 593.797C93.1651 593.797 93.1651 559.733 93.1651 541.591V456.246C93.1651 438.104 93.3502 404.225 134.634 403.855H136.67C177.954 404.225 178.139 438.104 178.139 456.246V541.591C178.139 559.733 178.139 593.797 136.67 593.797H134.634ZM128.525 538.814C128.525 551.773 129.45 555.66 135.374 555.66H135.93C141.669 555.475 142.78 551.588 142.78 538.814V459.208C142.78 446.249 141.854 442.362 135.93 442.177H135.374C129.45 442.362 128.525 446.435 128.525 459.208V538.814Z" fill="#24BBE0"/>
<path d="M8.45438 591.575H7.45438V592.575H8.45438V591.575ZM8.45438 560.844L7.4985 560.55L7.45438 560.694V560.844H8.45438ZM43.4437 446.99L42.5152 446.619L42.4999 446.657L42.4878 446.696L43.4437 446.99ZM45.1098 444.768L45.6645 445.601L46.4966 445.046L45.9419 444.214L45.1098 444.768ZM44.3693 443.658L45.2013 443.103L44.6724 442.31L43.8548 442.8L44.3693 443.658ZM8.45438 444.583H7.45438V445.583H8.45438V444.583ZM8.45438 406.447V405.447H7.45438V406.447H8.45438ZM85.8381 406.447H86.8381V405.447H85.8381V406.447ZM85.8381 434.401L86.793 434.698L86.8381 434.553V434.401H85.8381ZM49.738 550.477L50.6325 550.924L50.6688 550.851L50.6929 550.774L49.738 550.477ZM47.5165 553.439L46.9618 552.607L46.0358 553.224L46.7483 554.079L47.5165 553.439ZM48.4421 554.55L47.6739 555.19L48.2492 555.88L48.9968 555.382L48.4421 554.55ZM85.8381 553.439H86.8381V552.439H85.8381V553.439ZM85.8381 591.575V592.575H86.8381V591.575H85.8381ZM8.45438 591.575H9.45438V560.844H8.45438H7.45438V591.575H8.45438ZM8.45438 560.844L9.41026 561.138L44.3995 447.284L43.4437 446.99L42.4878 446.696L7.4985 560.55L8.45438 560.844ZM43.4437 446.99L44.3721 447.361C44.5177 446.998 44.7456 446.613 45.0017 446.278C45.2648 445.934 45.5114 445.703 45.6645 445.601L45.1098 444.768L44.5551 443.936C44.1528 444.205 43.7515 444.621 43.413 445.064C43.0673 445.516 42.7399 446.057 42.5152 446.619L43.4437 446.99ZM45.1098 444.768L45.9419 444.214L45.2013 443.103L44.3693 443.658L43.5373 444.212L44.2778 445.323L45.1098 444.768ZM44.3693 443.658L43.8548 442.8C43.5314 442.994 42.9628 443.197 42.2238 443.349C41.5022 443.498 40.6904 443.583 39.9262 443.583V444.583V445.583C40.8282 445.583 41.7751 445.484 42.6271 445.308C43.4616 445.136 44.2815 444.877 44.8838 444.515L44.3693 443.658ZM39.9262 444.583V443.583H8.45438V444.583V445.583H39.9262V444.583ZM8.45438 444.583H9.45438V406.447H8.45438H7.45438V444.583H8.45438ZM8.45438 406.447V407.447H85.8381V406.447V405.447H8.45438V406.447ZM85.8381 406.447H84.8381V434.401H85.8381H86.8381V406.447H85.8381ZM85.8381 434.401L84.8832 434.104L48.7831 550.18L49.738 550.477L50.6929 550.774L86.793 434.698L85.8381 434.401ZM49.738 550.477L48.8436 550.03C48.2712 551.174 47.8185 552.036 46.9618 552.607L47.5165 553.439L48.0712 554.271C49.436 553.361 50.0941 552.001 50.6325 550.924L49.738 550.477ZM47.5165 553.439L46.7483 554.079L47.6739 555.19L48.4421 554.55L49.2103 553.909L48.2847 552.799L47.5165 553.439ZM48.4421 554.55L48.9968 555.382C49.867 554.802 51.4837 554.439 53.2555 554.439V553.439V552.439C51.3246 552.439 49.2388 552.817 47.8874 553.718L48.4421 554.55ZM53.2555 553.439V554.439H85.8381V553.439V552.439H53.2555V553.439ZM85.8381 553.439H84.8381V591.575H85.8381H86.8381V553.439H85.8381ZM85.8381 591.575V590.575H8.45438V591.575V592.575H85.8381V591.575ZM134.634 403.855V402.855L134.625 402.855L134.634 403.855ZM136.67 403.855L136.679 402.855H136.67V403.855ZM135.93 555.66V556.66H135.946L135.962 556.66L135.93 555.66ZM135.93 442.177L135.961 441.177L135.945 441.177H135.93V442.177ZM135.374 442.177V441.177H135.359L135.343 441.177L135.374 442.177ZM134.634 593.797V592.797C124.403 592.797 116.815 590.697 111.172 587.332C105.534 583.971 101.77 579.307 99.25 574.064C94.1812 563.519 94.1651 550.702 94.1651 541.591H93.1651H92.1651C92.1651 550.622 92.149 563.908 97.4474 574.93C100.111 580.471 104.122 585.457 110.148 589.05C116.168 592.639 124.13 594.797 134.634 594.797V593.797ZM93.1651 541.591H94.1651V456.246H93.1651H92.1651V541.591H93.1651ZM93.1651 456.246H94.1651C94.1651 447.14 94.2269 434.366 99.3187 423.821C101.851 418.576 105.622 413.899 111.254 410.502C116.892 407.103 124.459 404.946 134.643 404.855L134.634 403.855L134.625 402.855C124.167 402.949 116.23 405.166 110.221 408.79C104.208 412.417 100.192 417.412 97.5176 422.951C92.1959 433.973 92.1651 447.211 92.1651 456.246H93.1651ZM134.634 403.855V404.855H136.67V403.855V402.855H134.634V403.855ZM136.67 403.855L136.661 404.855C146.845 404.946 154.413 407.103 160.05 410.502C165.682 413.899 169.453 418.576 171.986 423.821C177.077 434.366 177.139 447.14 177.139 456.246H178.139H179.139C179.139 447.211 179.108 433.973 173.787 422.951C171.112 417.412 167.096 412.417 161.083 408.79C155.074 405.166 147.137 402.949 136.679 402.855L136.67 403.855ZM178.139 456.246H177.139V541.591H178.139H179.139V456.246H178.139ZM178.139 541.591H177.139C177.139 550.702 177.123 563.519 172.054 574.064C169.534 579.307 165.77 583.971 160.132 587.332C154.489 590.697 146.901 592.797 136.67 592.797V593.797V594.797C147.174 594.797 155.137 592.639 161.157 589.05C167.182 585.457 171.194 580.471 173.857 574.93C179.155 563.908 179.139 550.622 179.139 541.591H178.139ZM136.67 593.797V592.797H134.634V593.797V594.797H136.67V593.797ZM128.525 538.814H127.525C127.525 542.06 127.582 544.766 127.765 546.995C127.947 549.215 128.258 551.024 128.792 552.448C129.333 553.892 130.124 554.989 131.28 555.702C132.419 556.403 133.796 556.66 135.374 556.66V555.66V554.66C133.991 554.66 133.031 554.431 132.33 553.999C131.647 553.578 131.095 552.893 130.664 551.746C130.226 550.578 129.935 548.984 129.758 546.831C129.583 544.687 129.525 542.047 129.525 538.814H128.525ZM135.374 555.66V556.66H135.93V555.66V554.66H135.374V555.66ZM135.93 555.66L135.962 556.66C137.5 556.61 138.846 556.31 139.965 555.586C141.097 554.853 141.888 553.756 142.44 552.316C143.513 549.521 143.78 545.164 143.78 538.814H142.78H141.78C141.78 545.238 141.49 549.211 140.573 551.599C140.131 552.752 139.568 553.46 138.878 553.907C138.174 554.363 137.229 554.618 135.898 554.661L135.93 555.66ZM142.78 538.814H143.78V459.208H142.78H141.78V538.814H142.78ZM142.78 459.208H143.78C143.78 452.775 143.56 448.37 142.514 445.554C141.973 444.101 141.187 442.992 140.041 442.253C138.911 441.525 137.54 441.227 135.961 441.177L135.93 442.177L135.899 443.176C137.282 443.219 138.248 443.477 138.957 443.934C139.651 444.381 140.207 445.089 140.639 446.251C141.536 448.665 141.78 452.683 141.78 459.208H142.78ZM135.93 442.177V441.177H135.374V442.177V443.177H135.93V442.177ZM135.374 442.177L135.343 441.177C133.757 441.227 132.384 441.539 131.254 442.285C130.111 443.04 129.328 444.165 128.79 445.626C127.744 448.463 127.525 452.865 127.525 459.208H128.525H129.525C129.525 452.778 129.768 448.757 130.666 446.318C131.1 445.141 131.659 444.414 132.356 443.954C133.066 443.485 134.03 443.219 135.406 443.176L135.374 442.177ZM128.525 459.208H127.525V538.814H128.525H129.525V459.208H128.525Z" fill="black" mask="url(#path-7-outside-4_22_40)"/>
<path d="M411.893 544.588C416.094 544.588 419.5 547.994 419.5 552.195C419.5 556.397 416.094 559.803 411.893 559.803C407.691 559.803 404.285 556.397 404.285 552.195C404.285 547.994 407.691 544.588 411.893 544.588Z" fill="#24BBE0" stroke="black"/>
</svg>
